<?xml version="1.0" encoding="UTF-8"?>
<svg version="1.1" xmlns="http://www.w3.org/2000/svg" width="861" height="688">
<path d="M0 0 C1.22538483 -0.0049649 2.45076965 -0.00992981 3.71328735 -0.01504517 C7.06089661 -0.02710867 10.40844375 -0.03460072 13.75606728 -0.03905582 C15.85495389 -0.04199968 17.9538352 -0.046107 20.05271912 -0.05056 C26.64096184 -0.06421956 33.22919225 -0.07389229 39.81744814 -0.07776189 C47.38227459 -0.08223128 54.94691935 -0.09973339 62.51169062 -0.12876248 C68.38463272 -0.15050422 74.25752419 -0.16047287 80.13050604 -0.16180301 C83.62583779 -0.16284266 87.12099843 -0.1685679 90.61628723 -0.18662262 C117.45716868 -0.31744273 141.96100558 2.04013765 162.72070312 21.09472656 C179.08291542 38.23454894 182.20632168 57.01729061 181.98632812 79.68847656 C181.98071597 81.41581347 181.97645356 83.14315522 181.97346497 84.87049866 C181.96214338 89.36345168 181.93278948 93.85610241 181.89935303 98.34893799 C181.86837456 102.95491449 181.85490097 107.560941 181.83984375 112.16699219 C181.80790432 121.16517011 181.75686658 130.16312609 181.69335938 139.16113281 C182.85830429 139.15225037 184.02324921 139.14336792 185.22349548 139.13421631 C196.26996952 139.0526836 207.31638149 138.99295466 218.36308956 138.95388412 C224.04060977 138.93312146 229.71788462 138.90501359 235.39526367 138.859375 C240.88719107 138.81550983 246.37888435 138.79191089 251.87097359 138.78162384 C253.95306642 138.77430476 256.03514828 138.76001536 258.11713982 138.73821259 C283.038795 138.48791094 304.61020561 143.23603643 323.34179688 160.77832031 C335.62419131 173.22393593 342.03701405 186.98482317 342.0332489 204.60137939 C342.01776505 205.69875427 342.00228119 206.79612915 341.98632812 207.92675781 C341.98208328 209.08616882 341.97783844 210.24557983 341.97346497 211.44012451 C341.95684166 215.09737632 341.91922037 218.75405112 341.88085938 222.41113281 C341.86579141 224.9098227 341.85210673 227.40852133 341.83984375 229.90722656 C341.80699192 235.99205465 341.75695875 242.07655249 341.69335938 248.16113281 C338.81027772 249.60267364 336.31678621 249.29640703 333.0949707 249.30639648 C332.07728859 249.3114344 332.07728859 249.3114344 331.03904724 249.3165741 C328.78447657 249.32610784 326.52998024 249.32802966 324.27539062 249.32910156 C322.69992543 249.33231694 321.12446054 249.33568122 319.54899597 249.33918762 C316.23423575 249.34518804 312.9195016 249.34702703 309.60473633 249.34643555 C305.3979561 249.34633489 301.19134835 249.35988183 296.98460865 249.37720776 C293.7216468 249.38845112 290.45872469 249.39035087 287.19574547 249.38982582 C285.64791975 249.39099152 284.10009252 249.39533207 282.55228615 249.40315819 C264.94930741 249.48369649 247.08238697 249.16467977 233.69335938 236.16113281 C225.33467339 226.14560261 222.72156079 213.90160956 220.0703125 201.43847656 C218.54133697 194.64765882 216.77097603 187.91708751 212.69335938 182.16113281 C210.31804085 180.66306425 209.01101839 180.17701576 206.19335938 180.03613281 C202.77081655 181.57627709 202.13556834 183.50800362 200.56738281 186.81591797 C199.08978557 190.78066633 198.83404121 194.71509677 198.56835938 198.91113281 C198.41902821 200.76663448 198.26927764 202.62210243 198.11914062 204.47753906 C198.04904785 205.41742676 197.97895508 206.35731445 197.90673828 207.32568359 C195.51355122 239.12714192 195.51355122 239.12714192 186.69335938 247.16113281 C181.80851066 249.60355717 174.42790392 248.89210607 169.26757812 247.51269531 C160.15363546 243.37160292 156.12600603 235.10581785 152.69335938 226.16113281 C151.3903718 222.34309944 150.17719892 218.5007997 149.00195312 214.64160156 C147.31061527 210.14314774 145.09218714 206.55996058 141.69335938 203.16113281 C138.77895238 202.49391745 138.77895238 202.49391745 135.69335938 203.16113281 C131.24415488 208.37867383 129.68934749 214.70535876 127.69335938 221.16113281 C122.31654578 238.55176429 122.31654578 238.55176429 114.69335938 243.16113281 C110.43617626 243.78035945 108.31829308 243.49198007 104.50585938 241.47363281 C91.34592338 230.65324099 90.65007159 212.28844218 89.10450745 196.49430847 C88.79546413 193.25872534 88.49317424 190.02258345 88.19335938 186.78613281 C87.26539713 157.37913201 87.26539713 157.37913201 74.68945312 132.36425781 C71.83460933 130.64353004 69.96388391 130.68418132 66.69335938 131.16113281 C62.34458196 134.2674024 60.26098582 139.13508049 59.29458618 144.28701782 C59.01248715 146.64568184 58.80204492 148.99975505 58.61914062 151.36816406 C58.54182205 152.23995804 58.46450348 153.11175201 58.38484192 154.00996399 C58.2242425 155.82883392 58.06851765 157.64814049 57.9175415 159.46783447 C57.57004019 163.6426753 57.18372076 167.81381975 56.79882812 171.98535156 C56.72520554 172.78963089 56.65158295 173.59391022 56.57572937 174.42256165 C51.28457982 231.86529427 51.28457982 231.86529427 39.69335938 246.16113281 C35.62600026 248.87270555 32.46481739 248.7842098 27.69335938 248.16113281 C21.40351313 245.44786581 18.45660838 240.1757261 15.69335938 234.16113281 C13.26726606 227.23937553 11.8611954 220.10542616 10.47851562 212.91894531 C10.26525635 211.81623291 10.05199707 210.71352051 9.83227539 209.57739258 C9.41461637 207.38504181 9.00960745 205.19023326 8.61889648 202.99291992 C7.31544744 196.02715258 5.87687654 189.34464998 0.69335938 184.16113281 C-2.80385956 184.08896642 -2.80385956 184.08896642 -6.30664062 185.16113281 C-9.97489324 189.58115078 -10.48537779 195.12416463 -11.55664062 200.59863281 C-14.02623523 212.27631479 -17.21222715 222.87872054 -26.30664062 231.16113281 C-29.5091821 232.76240355 -31.75978626 232.56814889 -35.30664062 232.16113281 C-41.21283673 229.15881646 -43.27191342 224.48669023 -45.3449707 218.48510742 C-47.38048665 211.44942588 -48.45228486 204.19711264 -49.66113281 196.9831543 C-51.49787361 182.98480536 -51.49787361 182.98480536 -58.30664062 171.16113281 C-62.40512732 170.61982325 -64.5288055 170.63654634 -67.99414062 172.97363281 C-74.78944305 182.34013075 -76.26782136 195.05594458 -78.65576172 206.18286133 C-81.82815698 220.86619334 -85.528938 234.86405566 -97.30664062 245.16113281 C-101.03031354 246.40235712 -103.37997029 246.61173433 -107.30664062 246.16113281 C-115.81233397 241.78723737 -119.39643371 234.56692906 -122.80664062 226.03613281 C-125.52691641 219.37272809 -125.52691641 219.37272809 -130.30664062 214.16113281 C-133.21625491 213.23754156 -135.39615233 213.23689491 -138.30664062 214.16113281 C-143.70250231 217.98588441 -146.09965405 224.60307313 -148.88867188 230.36035156 C-153.1688494 238.8145865 -160.36518971 243.34936274 -169.05737305 246.72998047 C-175.64138339 248.87857026 -182.33550032 248.53406981 -189.18554688 248.45410156 C-190.60757496 248.44849517 -192.02960891 248.44423001 -193.4516449 248.4412384 C-197.16546071 248.4298715 -200.87891557 248.40047653 -204.59259033 248.36712646 C-208.39370849 248.33624792 -212.19488589 248.32269536 -215.99609375 248.30761719 C-223.43310594 248.27559735 -230.8698224 248.22450213 -238.30664062 248.16113281 C-238.40884798 240.70886069 -238.47844218 233.25677222 -238.52636719 225.80395508 C-238.54636607 223.27361293 -238.57357415 220.7433163 -238.60839844 218.21313477 C-238.65743423 214.55636292 -238.67972772 210.90020704 -238.69726562 207.24316406 C-238.71791077 206.12907669 -238.73855591 205.01498932 -238.75982666 203.86714172 C-238.76431085 187.83548169 -232.54023513 173.97808842 -221.58398438 162.43847656 C-206.97737868 147.83187087 -187.86527635 138.9822221 -166.97015381 138.91229248 C-166.10843567 138.91948303 -165.24671753 138.92667358 -164.35888672 138.93408203 C-163.42108368 138.93378998 -162.48328064 138.93349792 -161.51705933 138.93319702 C-158.45463411 138.93457689 -155.3924602 138.95007413 -152.33007812 138.96582031 C-150.19202813 138.96955523 -148.0539764 138.97239994 -145.91592407 138.97439575 C-140.31658111 138.98199453 -134.71734359 139.00161044 -129.11804199 139.02380371 C-123.39316229 139.0443434 -117.66826538 139.05341478 -111.94335938 139.06347656 C-100.73107373 139.08486014 -89.51886598 139.1189503 -78.30664062 139.16113281 C-78.31552307 138.1944165 -78.32440552 137.2277002 -78.33355713 136.23168945 C-78.41517696 127.05386658 -78.4748595 117.87611879 -78.51388931 108.69801331 C-78.53463054 103.98113704 -78.56269712 99.26455727 -78.60839844 94.54785156 C-78.65234288 89.98311513 -78.67587851 85.41866113 -78.6861496 80.85372925 C-78.69345488 79.12527021 -78.7077159 77.39682397 -78.72956085 75.66848755 C-78.98830453 54.31857907 -74.24533462 37.14772867 -59.30664062 21.16113281 C-43.3976891 5.61311736 -21.62554694 0.02105479 0 0 Z " fill="#EE3F44" transform="translate(382.306640625,19.8388671875)"/>
<path d="M0 0 C7.07688033 4.61535674 8.97666016 9.95691534 10.875 17.875 C11.42177191 21.28296192 11.73499865 24.68480064 12 28.125 C12.12000366 29.49470947 12.12000366 29.49470947 12.24243164 30.89208984 C12.58766555 34.91238297 12.8910274 38.93195221 13.11328125 42.9609375 C13.56015085 55.35714444 13.56015085 55.35714444 18.8203125 66.19140625 C20.76468584 68.1787165 20.76468584 68.1787165 23.4375 67.6875 C24.241875 67.419375 25.04625 67.15125 25.875 66.875 C27.36 66.38 27.36 66.38 28.875 65.875 C30.02842815 63.60842615 30.02842815 63.60842615 30.875 60.875 C31.18179687 60.00746094 31.48859375 59.13992188 31.8046875 58.24609375 C33.98658573 51.47499635 35.5175409 44.79992431 36.8125 37.8125 C39.00917555 26.19389972 42.12427585 14.18939986 51.8125 6.5625 C58.09207172 3.10232783 63.35623459 2.59039506 70.36865234 2.64794922 C71.30587128 2.64765717 72.24309021 2.64736511 73.20870972 2.64706421 C76.29288127 2.64845262 79.37680838 2.66399091 82.4609375 2.6796875 C84.60470447 2.68341936 86.74847315 2.68626552 88.89224243 2.68826294 C94.52452331 2.69588573 100.15670044 2.71552265 105.78894043 2.7376709 C111.54026893 2.75815847 117.29161425 2.76727089 123.04296875 2.77734375 C134.32035799 2.79876977 145.59767035 2.83288941 156.875 2.875 C156.97755187 9.16961531 157.04694102 15.46401041 157.09472656 21.75927734 C157.11467547 23.89477589 157.14184458 26.03022102 157.17675781 28.16552734 C157.52844987 50.2497197 154.29094087 66.82250258 138.46484375 83.41015625 C121.72519896 99.34185439 100.01417246 105.08909922 77.47802734 104.98852539 C76.15910492 104.98874443 76.15910492 104.98874443 74.8135376 104.9889679 C71.94597794 104.98827869 69.07848562 104.98053342 66.2109375 104.97265625 C64.20740799 104.97078854 62.20387803 104.9693663 60.2003479 104.96836853 C54.95614333 104.96457117 49.71196696 104.95476496 44.46777344 104.94366455 C39.10482159 104.93339031 33.74186513 104.92885808 28.37890625 104.92382812 C17.87759186 104.91313992 7.37629828 104.89609732 -3.125 104.875 C-3.12055878 105.8255426 -3.11611755 106.77608521 -3.11154175 107.75543213 C-3.07081917 116.75795899 -3.04093144 125.76046692 -3.02137566 134.76306534 C-3.01098354 139.39026 -2.99690888 144.01737971 -2.97412109 148.64453125 C-2.95222837 153.11845374 -2.94039708 157.59230458 -2.93524551 162.06627655 C-2.93157902 163.76451493 -2.9244202 165.46274985 -2.91353989 167.16095734 C-2.79700969 186.12062843 -5.16934414 201.47266857 -17.125 216.875 C-17.57359375 217.48859375 -18.0221875 218.1021875 -18.484375 218.734375 C-30.1909195 233.74629677 -49.82879495 241.19096723 -68.125 243.875 C-69.96864103 243.96603433 -71.81483788 244.01368676 -73.66070557 244.02217102 C-75.27481827 244.03290398 -75.27481827 244.03290398 -76.92153931 244.04385376 C-78.08728485 244.04654266 -79.2530304 244.04923157 -80.45410156 244.05200195 C-81.69402863 244.05857315 -82.93395569 244.06514435 -84.2114563 244.07191467 C-88.31284838 244.09161326 -92.41420137 244.10331648 -96.515625 244.11328125 C-97.93609383 244.11733359 -99.35656248 244.12145065 -100.77703094 244.12563133 C-107.46085444 244.14467265 -114.14466705 244.1588997 -120.82851243 244.1672433 C-128.49751213 244.17697871 -136.16622035 244.2032051 -143.83511758 244.24374419 C-149.79046222 244.2741236 -155.74572444 244.28873305 -161.70114493 244.29202431 C-165.24415549 244.29435223 -168.78685445 244.30301025 -172.32978058 244.32848549 C-209.38982143 244.5812338 -209.38982143 244.5812338 -224.5625 236.125 C-225.21025391 235.78138428 -225.85800781 235.43776855 -226.52539062 235.08374023 C-243.20447801 226.01066384 -255.26378176 213.14157647 -261.125 194.875 C-263.54851377 184.86544918 -263.38578582 174.85975299 -263.3203125 164.640625 C-263.31657392 162.90899826 -263.31373095 161.17736938 -263.31173706 159.44573975 C-263.30416705 154.92816134 -263.284577 150.41071526 -263.2623291 145.89318848 C-263.24172631 141.26735218 -263.23270474 136.64149413 -263.22265625 132.015625 C-263.20132365 122.96869244 -263.16726966 113.9218573 -263.125 104.875 C-264.74753441 104.88166183 -264.74753441 104.88166183 -266.40284729 104.88845825 C-276.65531428 104.92920857 -286.90776458 104.95908167 -297.16029453 104.97862434 C-302.42973296 104.98900953 -307.6991054 105.00307121 -312.96850586 105.02587891 C-318.06489131 105.04779675 -323.16121375 105.05960809 -328.25764275 105.06475449 C-330.19064257 105.06841655 -332.12363941 105.07556634 -334.05661201 105.08646011 C-361.2395645 105.2334005 -386.4380316 101.4907299 -406.5 81.6640625 C-418.32350666 69.10158667 -423.50365436 54.9798255 -423.3203125 37.93359375 C-423.3174826 36.92531021 -423.31465271 35.91702667 -423.31173706 34.87818909 C-423.30063177 31.68950017 -423.27554545 28.50110259 -423.25 25.3125 C-423.23995772 23.13737388 -423.23083406 20.96224331 -423.22265625 18.78710938 C-423.20072416 13.4829752 -423.16734411 8.17900843 -423.125 2.875 C-413.58025941 2.8054129 -404.03560649 2.75214458 -394.49066734 2.71956348 C-390.0583028 2.70392421 -385.62611214 2.6827178 -381.19384766 2.64868164 C-376.91445843 2.61602602 -372.6352362 2.59813391 -368.35573196 2.59036827 C-366.72508746 2.58483588 -365.09445183 2.5740324 -363.46387863 2.55780983 C-361.17542701 2.53595266 -358.88766072 2.53303647 -356.59912109 2.53442383 C-354.64720352 2.52443108 -354.64720352 2.52443108 -352.65585327 2.51423645 C-346.23193904 3.17059737 -342.27981744 6.09695994 -338.125 10.875 C-333.13676751 17.57462076 -328.77445995 24.92662014 -326.125 32.875 C-322.3518987 34.13270043 -319.01950178 34.72645952 -315.125 33.875 C-309.34424228 30.0704548 -307.6900679 23.28919531 -305.46875 17.109375 C-302.96966604 11.09413802 -299.46649015 6.45192194 -294.0625 2.8125 C-290.74410372 1.75343736 -288.58223254 1.37082025 -285.125 1.875 C-275.88919114 6.68531711 -271.27625859 14.88121273 -267.88378906 24.44824219 C-265.2852326 32.75894079 -263.63942351 41.37373915 -261.78466797 49.87353516 C-259.23950133 63.91625074 -259.23950133 63.91625074 -252.125 75.875 C-249.19968563 77.65816734 -249.19968563 77.65816734 -246.125 77.875 C-242.13112026 76.38537026 -240.80947313 74.18716342 -239.03125 70.33203125 C-237.30184839 65.64326569 -236.50011351 60.78174021 -235.625 55.875 C-235.20182927 53.64793988 -234.7760455 51.42137469 -234.34765625 49.1953125 C-234.03852295 47.57737793 -234.03852295 47.57737793 -233.72314453 45.92675781 C-232.92315903 41.84519912 -232.03965177 37.79257143 -231.0625 33.75 C-230.64291016 31.98269531 -230.64291016 31.98269531 -230.21484375 30.1796875 C-228.28310103 24.32214505 -225.61329135 19.06586706 -220.125 15.875 C-215.00851286 15.23543911 -212.28819788 15.9436344 -208.125 18.875 C-200.04633918 28.58492886 -197.19709385 42.49550784 -194.55615234 54.59619141 C-193.70439109 58.31305391 -192.84423294 61.13542367 -190.125 63.875 C-187.16808291 64.62515195 -187.16808291 64.62515195 -184.125 63.875 C-177.01743208 57.57972556 -176.29079667 45.99525173 -174.75 37.1875 C-169.57170373 9.11413015 -169.57170373 9.11413015 -159.8125 0.9375 C-156.22576872 -0.48051004 -152.92770976 -0.85961438 -149.125 -0.125 C-142.76553804 2.79956738 -140.48069281 8.38401445 -137.95507812 14.56103516 C-129.85996013 37.12736704 -128.96988249 62.65439227 -127.21435547 86.36401367 C-126.30282486 101.90127888 -126.30282486 101.90127888 -120.125 115.875 C-117.27175563 117.30162219 -115.29045451 117.18533868 -112.125 116.875 C-106.20131877 113.84091937 -104.1960844 107.8466548 -102.125 101.875 C-98.796677 87.39421291 -97.75676925 72.49349018 -96.39819336 57.73144531 C-92.71073666 18.03942611 -92.71073666 18.03942611 -82.375 7.875 C-78.25313632 5.33846851 -74.97067754 4.21537897 -70.125 4.875 C-65.05460732 7.12176083 -62.7184075 11.20405557 -60.5625 16.125 C-59.12874819 19.87155801 -57.86726665 23.65651263 -56.66015625 27.48046875 C-56.40500244 28.2787207 -56.14984863 29.07697266 -55.88696289 29.89941406 C-55.38923206 31.47569458 -54.90720461 33.05704364 -54.44311523 34.64355469 C-52.88144649 39.6624577 -51.14413483 42.46009321 -47.125 45.875 C-44.23449479 45.61420313 -44.23449479 45.61420313 -41.125 43.875 C-37.13195299 38.46699939 -35.3325386 31.67199356 -33.1875 25.375 C-29.66455695 15.10255613 -25.90400534 6.50235519 -16.125 0.875 C-10.65575004 -1.58058162 -5.69027823 -2.04850016 0 0 Z " fill="#F0696E" transform="translate(567.125,279.125)"/>
<path d="M0 0 C13.15310497 -0.11637907 26.30608536 -0.20496032 39.45960236 -0.25906086 C45.56879498 -0.28503996 51.67763267 -0.32022288 57.78662109 -0.37719727 C63.6935215 -0.43193569 69.60008273 -0.46150818 75.50721741 -0.47438622 C77.74924552 -0.48355149 79.99125724 -0.50144691 82.23313904 -0.52865028 C104.78598177 -0.79116996 123.65459688 3.58857911 141 19 C141.63679687 19.55429688 142.27359375 20.10859375 142.9296875 20.6796875 C152.86547122 29.9089266 160.30785299 44.10883665 161.17555237 57.76237488 C161.23038538 60.96840856 161.22491657 64.16863366 161.1953125 67.375 C161.1924826 68.5400708 161.18965271 69.7051416 161.18673706 70.90551758 C161.17559807 74.60378562 161.15050479 78.30180592 161.125 82 C161.1149621 84.51692357 161.10583766 87.03385096 161.09765625 89.55078125 C161.0756793 95.70060447 161.04226444 101.85028453 161 108 C158.11691834 109.44154083 155.62342684 109.13527422 152.40161133 109.14526367 C151.72315659 109.14862228 151.04470184 109.1519809 150.34568787 109.15544128 C148.0911172 109.16497502 145.83662086 109.16689685 143.58203125 109.16796875 C142.00656606 109.17118412 140.43110117 109.17454841 138.8556366 109.17805481 C135.54087637 109.18405523 132.22614223 109.18589422 128.91137695 109.18530273 C124.70459672 109.18520208 120.49798897 109.19874901 116.29124928 109.21607494 C113.02828743 109.22731831 109.76536531 109.22921806 106.50238609 109.22869301 C104.95456038 109.2298587 103.40673314 109.23419925 101.85892677 109.24202538 C84.25594803 109.32256368 66.38902759 109.00354695 53 96 C44.64131401 85.9844698 42.02820142 73.74047674 39.37695312 61.27734375 C37.8479776 54.48652601 36.07761665 47.7559547 32 42 C29.62468148 40.50193144 28.31765901 40.01588295 25.5 39.875 C22.07745717 41.41514427 21.44220896 43.34687081 19.87402344 46.65478516 C18.39642619 50.61953352 18.14068184 54.55396396 17.875 58.75 C17.72566883 60.60550166 17.57591827 62.46096962 17.42578125 64.31640625 C17.32064209 65.72623779 17.32064209 65.72623779 17.21337891 67.16455078 C14.82019184 98.9660091 14.82019184 98.9660091 6 107 C1.11515128 109.44242436 -6.26545545 108.73097326 -11.42578125 107.3515625 C-19.47419349 103.69461403 -23.68611708 96.73661651 -27.09765625 88.8671875 C-28.46234604 84.53090045 -28.43838429 80.49100345 -28 76 C-26.515 75.505 -26.515 75.505 -25 75 C-24.00103665 73.25506575 -24.00103665 73.25506575 -23 71 C-21.98364224 69.42261275 -20.96561428 67.84618471 -19.92871094 66.28222656 C-7.84067942 48.00496267 -1.81248944 29.02275069 -0.453125 7.13671875 C-0.40881348 6.44751343 -0.36450195 5.75830811 -0.31884766 5.04821777 C-0.21090238 3.36558436 -0.10521711 1.68280621 0 0 Z " fill="#EF686D" transform="translate(563,160)"/>
<path d="M0 0 C9.23580886 4.81031711 13.84874141 13.00621273 17.24121094 22.57324219 C19.83822138 30.8789963 21.47299415 39.48581125 23.32275391 47.98095703 C24.68233901 54.04174631 26.34666397 60.01407572 28 66 C28.33846891 67.33203892 28.67426064 68.66479112 29 70 C28.01 70.495 28.01 70.495 27 71 C22.9121618 82.64116108 23.52476444 95.21678567 23.48828125 107.3671875 C23.47140377 109.49953219 23.4532495 111.63186713 23.43388367 113.76419067 C23.3867106 119.33051501 23.35669081 124.89679975 23.33044434 130.46325684 C23.30047249 136.16178198 23.25399994 141.8601711 23.20898438 147.55859375 C23.12332393 158.70565752 23.05581434 169.85274958 23 181 C22.67 181 22.34 181 22 181 C22 155.26 22 129.52 22 103 C12.62400391 103.03480469 12.62400391 103.03480469 3.05859375 103.0703125 C-0.92904068 103.08054562 -4.91665864 103.09017457 -8.90429688 103.09765625 C-15.21740124 103.10955765 -21.53044695 103.12355391 -27.84350586 103.15087891 C-32.93989131 103.17279675 -38.03621375 103.18460809 -43.13264275 103.18975449 C-45.06564257 103.19341655 -46.99863941 103.20056634 -48.93161201 103.21146011 C-76.1145645 103.3584005 -101.3130316 99.6157299 -121.375 79.7890625 C-133.19850666 67.22658667 -138.37865436 53.1048255 -138.1953125 36.05859375 C-138.1924826 35.05031021 -138.18965271 34.04202667 -138.18673706 33.00318909 C-138.17563177 29.81450017 -138.15054545 26.62610259 -138.125 23.4375 C-138.11495772 21.26237388 -138.10583406 19.08724331 -138.09765625 16.91210938 C-138.07572416 11.6079752 -138.04234411 6.30400843 -138 1 C-128.45525941 0.9304129 -118.91060649 0.87714458 -109.36566734 0.84456348 C-104.9333028 0.82892421 -100.50111214 0.8077178 -96.06884766 0.77368164 C-91.78945843 0.74102602 -87.5102362 0.72313391 -83.23073196 0.71536827 C-81.60008746 0.70983588 -79.96945183 0.6990324 -78.33887863 0.68280983 C-76.05042701 0.66095266 -73.76266072 0.65803647 -71.47412109 0.65942383 C-69.52220352 0.64943108 -69.52220352 0.64943108 -67.53085327 0.63923645 C-61.10693904 1.29559737 -57.15481744 4.22195994 -53 9 C-48.01176751 15.69962076 -43.64945995 23.05162014 -41 31 C-37.2268987 32.25770043 -33.89450178 32.85145952 -30 32 C-24.21924228 28.1954548 -22.5650679 21.41419531 -20.34375 15.234375 C-17.84466604 9.21913802 -14.34149015 4.57692194 -8.9375 0.9375 C-5.61910372 -0.12156264 -3.45723254 -0.50417975 0 0 Z " fill="#EA3E43" transform="translate(282,281)"/>
<path d="M0 0 C6.27 0 12.54 0 19 0 C29.80657255 24.36852798 29.80657255 24.36852798 34.1875 34.875 C34.47826416 35.56263428 34.76902832 36.25026855 35.06860352 36.95874023 C36.2461963 39.81485033 37 41.87649394 37 45 C37.66 45 38.32 45 39 45 C39.13390137 44.48187744 39.26780273 43.96375488 39.40576172 43.42993164 C41.67235459 35.28367064 44.90905658 27.56730338 48.15283203 19.77416992 C49.13493748 17.41361461 50.1089954 15.04985329 51.08203125 12.68554688 C51.70266215 11.18470435 52.32373923 9.68404624 52.9453125 8.18359375 C53.23697296 7.47641708 53.52863342 6.76924042 53.82913208 6.04063416 C55.88397543 1.11602457 55.88397543 1.11602457 57 0 C58.40348735 -0.09860131 59.81180477 -0.13078937 61.21875 -0.1328125 C62.49298828 -0.13474609 62.49298828 -0.13474609 63.79296875 -0.13671875 C64.68628906 -0.13285156 65.57960938 -0.12898437 66.5 -0.125 C67.39332031 -0.12886719 68.28664063 -0.13273438 69.20703125 -0.13671875 C70.05652344 -0.13542969 70.90601563 -0.13414062 71.78125 -0.1328125 C72.56564453 -0.13168457 73.35003906 -0.13055664 74.15820312 -0.12939453 C76 0 76 0 77 1 C77.09492722 3.34253782 77.12559791 5.65546104 77.11352539 7.99829102 C77.11367142 8.72995483 77.11381744 9.46161865 77.1139679 10.2154541 C77.11326867 12.64496784 77.10547585 15.07440583 77.09765625 17.50390625 C77.0957921 19.18399514 77.09436819 20.86408457 77.09336853 22.54417419 C77.08954307 26.97473643 77.07971256 31.4052661 77.06866455 35.83581543 C77.05845103 40.35342976 77.05387104 44.87104934 77.04882812 49.38867188 C77.03809031 58.25912893 77.02101356 67.12956176 77 76 C74.14804778 77.42597611 71.67538825 77.1320252 68.5 77.125 C67.3346875 77.12757813 66.169375 77.13015625 64.96875 77.1328125 C62 77 62 77 60 76 C59.67 64.12 59.34 52.24 59 40 C57.92878906 42.51496094 56.85757813 45.02992188 55.75390625 47.62109375 C54.71859677 50.04720425 53.68245953 52.47295962 52.64624023 54.89868164 C51.92466906 56.58906657 51.20396352 58.27982128 50.48413086 59.97094727 C49.45131338 62.39696658 48.41542414 64.82165356 47.37890625 67.24609375 C47.05596085 68.00651474 46.73301544 68.76693573 46.40028381 69.55039978 C44.11387171 74.88612829 44.11387171 74.88612829 43 76 C41.31391034 76.07205511 39.62499341 76.08386068 37.9375 76.0625 C36.55884766 76.04896484 36.55884766 76.04896484 35.15234375 76.03515625 C34.08693359 76.01775391 34.08693359 76.01775391 33 76 C29.07935938 68.53936349 25.94069009 60.79288152 22.75 53 C20.8525 48.38 18.955 43.76 17 39 C16.67 51.21 16.34 63.42 16 76 C13.26922124 77.36538938 11.04439633 77.13231826 8 77.125 C6.39125 77.12886719 6.39125 77.12886719 4.75 77.1328125 C2 77 2 77 0 76 C0 50.92 0 25.84 0 0 Z " fill="#E93D43" transform="translate(514,562)"/>
<path d="M0 0 C6.105 -0.061875 12.21 -0.12375 18.5 -0.1875 C20.41103516 -0.21481201 22.32207031 -0.24212402 24.29101562 -0.27026367 C25.82942068 -0.27903694 27.36783278 -0.28667888 28.90625 -0.29296875 C30.07559082 -0.3159906 30.07559082 -0.3159906 31.26855469 -0.33947754 C37.96263816 -0.3426272 43.48930991 0.88873788 48.75 5.3125 C53.99743714 11.58027215 56.3995989 16.23985976 56.26953125 24.375 C55.61349718 30.76420137 52.59810108 34.71008359 47.875 38.875 C46.58640489 39.92046395 45.29519448 40.96272304 44 42 C43.34 42.66 42.68 43.32 42 44 C42.92619141 45.25490234 42.92619141 45.25490234 43.87109375 46.53515625 C48.55754819 52.95133503 53.02590479 59.4403604 57.125 66.25 C57.51486084 66.89332275 57.90472168 67.53664551 58.30639648 68.19946289 C61 72.74419334 61 72.74419334 61 75 C58.0586446 76.4706777 55.39772595 76.17048999 52.125 76.1875 C50.27261719 76.20876953 50.27261719 76.20876953 48.3828125 76.23046875 C43.42682905 75.89282092 43.42682905 75.89282092 41 74 C39.59818037 71.82356663 38.37818239 69.7225332 37.1875 67.4375 C33.95684429 61.51260507 30.47177766 56.08930886 26 51 C25.37609375 50.28070312 24.7521875 49.56140625 24.109375 48.8203125 C21.81196147 46.53584845 21.81196147 46.53584845 17 46 C17 55.57 17 65.14 17 75 C14.14804778 76.42597611 11.67538825 76.1320252 8.5 76.125 C6.75203125 76.12886719 6.75203125 76.12886719 4.96875 76.1328125 C2 76 2 76 0 75 C0 50.25 0 25.5 0 0 Z M17 14 C17 19.61 17 25.22 17 31 C27.47963684 31.62739214 27.47963684 31.62739214 37 28 C39.00559983 25.47120022 39.00383699 24.18801269 38.9375 20.9375 C38.26777922 17.90661919 38.26777922 17.90661919 35.9609375 16.359375 C32.13925708 14.60483043 28.84144162 14.44343624 24.6875 14.3125 C22.150625 14.209375 19.61375 14.10625 17 14 Z " fill="#DC3A3F" transform="translate(598,563)"/>
<path d="M0 0 C0.80086533 -0.00570007 1.60173065 -0.01140015 2.42686462 -0.01727295 C4.1292081 -0.02674276 5.83157007 -0.03326476 7.53393555 -0.03710938 C10.11736108 -0.04674453 12.69996696 -0.0777183 15.28320312 -0.109375 C16.93879737 -0.11591207 18.5943973 -0.12115977 20.25 -0.125 C21.0149025 -0.1373468 21.77980499 -0.1496936 22.56788635 -0.16241455 C29.16316077 -0.13555595 34.66563609 1.16458674 39.83984375 5.515625 C45.08728089 11.78339715 47.48944265 16.44298476 47.359375 24.578125 C46.70334093 30.96732637 43.68794483 34.91320859 38.96484375 39.078125 C37.67624864 40.12358895 36.38503823 41.16584804 35.08984375 42.203125 C34.42984375 42.863125 33.76984375 43.523125 33.08984375 44.203125 C34.01603516 45.45802734 34.01603516 45.45802734 34.9609375 46.73828125 C39.63967664 53.14169563 44.13158259 59.62745171 48.27734375 66.390625 C48.6755835 67.02556885 49.07382324 67.6605127 49.48413086 68.31469727 C50.43566282 69.89716186 51.2733072 71.54696217 52.08984375 73.203125 C51.59484375 74.688125 51.59484375 74.688125 51.08984375 76.203125 C48.65226962 76.23010922 46.2149946 76.24995599 43.77734375 76.265625 C43.08705078 76.27400391 42.39675781 76.28238281 41.68554688 76.29101562 C38.54154125 76.30620406 36.09564356 76.20505827 33.08984375 75.203125 C31.79755424 73.13784938 30.65223373 71.10647767 29.52734375 68.953125 C26.65188429 63.72452356 23.58204563 58.74914052 20.02734375 53.953125 C18.86525391 52.36757813 18.86525391 52.36757813 17.6796875 50.75 C14.80682421 47.51867574 14.80682421 47.51867574 8.08984375 46.203125 C8.08984375 55.773125 8.08984375 65.343125 8.08984375 75.203125 C5.23789153 76.62910111 2.765232 76.3351502 -0.41015625 76.328125 C-2.158125 76.33199219 -2.158125 76.33199219 -3.94140625 76.3359375 C-6.91015625 76.203125 -6.91015625 76.203125 -8.91015625 75.203125 C-8.9332809 65.57199788 -8.95107196 55.94088026 -8.96196842 46.30973148 C-8.96719699 41.83806951 -8.97429414 37.36642647 -8.9855957 32.89477539 C-8.99642554 28.58300527 -9.00243329 24.27125341 -9.00503349 19.95947075 C-9.00688757 18.31076202 -9.01050785 16.66205434 -9.01588631 15.01335335 C-9.02309803 12.71208628 -9.02414714 10.4108956 -9.02368164 8.10961914 C-9.02590225 6.7972377 -9.02812286 5.48485626 -9.03041077 4.13270569 C-8.7964598 -1.56669131 -4.64340695 0.02533002 0 0 Z M8.08984375 14.203125 C8.08984375 19.813125 8.08984375 25.423125 8.08984375 31.203125 C18.58137432 31.86606684 18.58137432 31.86606684 28.08984375 28.203125 C30.42027933 24.70747164 30.67747619 23.3165521 30.08984375 19.203125 C26.60740229 15.42474484 23.73678759 14.72265889 18.82885742 14.50097656 C17.98685791 14.48518555 17.1448584 14.46939453 16.27734375 14.453125 C13.57546875 14.370625 10.87359375 14.288125 8.08984375 14.203125 Z " fill="#DD3A40" transform="translate(386.91015625,562.796875)"/>
<path d="M0 0 C0.70253906 0.00386719 1.40507812 0.00773438 2.12890625 0.01171875 C2.83144531 0.00785156 3.53398437 0.00398437 4.2578125 0 C9.50229247 0.01010497 9.50229247 0.01010497 10.62890625 1.13671875 C10.7166623 3.28230702 10.73585844 5.43076296 10.7265625 7.578125 C10.72333984 8.88330078 10.72011719 10.18847656 10.71679688 11.53320312 C10.70844026 12.92187565 10.6999753 14.31054752 10.69140625 15.69921875 C10.68639291 17.09179531 10.68182972 18.48437356 10.67773438 19.87695312 C10.66590067 23.29689326 10.64796456 26.71681125 10.62890625 30.13671875 C18.21890625 30.13671875 25.80890625 30.13671875 33.62890625 30.13671875 C33.61730469 28.05488281 33.60570312 25.97304688 33.59375 23.828125 C33.5867989 21.81925577 33.57988236 19.81038624 33.57397461 17.80151367 C33.56893545 16.40176647 33.56210409 15.00202455 33.5534668 13.60229492 C33.54138305 11.59426098 33.53620818 9.58618918 33.53125 7.578125 C33.52601318 6.36842041 33.52077637 5.15871582 33.51538086 3.91235352 C33.62890625 1.13671875 33.62890625 1.13671875 34.62890625 0.13671875 C37.15940027 0.06358308 39.66195462 0.04424348 42.19140625 0.07421875 C43.2577832 0.08098633 43.2577832 0.08098633 44.34570312 0.08789062 C46.10680638 0.09971011 47.86786661 0.11764612 49.62890625 0.13671875 C51.12173018 3.12236661 50.74807602 5.82655593 50.74243164 9.15673828 C50.74257767 9.87879456 50.74272369 10.60085083 50.74287415 11.3447876 C50.74217632 13.73639916 50.73439 16.12793326 50.7265625 18.51953125 C50.72469786 20.17577064 50.72327417 21.83201059 50.72227478 23.48825073 C50.71845324 27.85139483 50.70862603 32.21450575 50.6975708 36.57763672 C50.68734889 41.02831574 50.68277549 45.47900012 50.67773438 49.9296875 C50.66700345 58.66537983 50.64993137 67.40104516 50.62890625 76.13671875 C47.77695403 77.56269486 45.3042945 77.26874395 42.12890625 77.26171875 C40.96359375 77.26429688 39.79828125 77.266875 38.59765625 77.26953125 C35.62890625 77.13671875 35.62890625 77.13671875 33.62890625 76.13671875 C33.62890625 66.56671875 33.62890625 56.99671875 33.62890625 47.13671875 C26.03890625 47.13671875 18.44890625 47.13671875 10.62890625 47.13671875 C10.62890625 56.70671875 10.62890625 66.27671875 10.62890625 76.13671875 C7.77695403 77.56269486 5.3042945 77.26874395 2.12890625 77.26171875 C0.3809375 77.26558594 0.3809375 77.26558594 -1.40234375 77.26953125 C-4.37109375 77.13671875 -4.37109375 77.13671875 -6.37109375 76.13671875 C-6.39421821 66.37520887 -6.41200936 56.61370545 -6.42290592 46.85217381 C-6.42813453 42.31997781 -6.43523176 37.78780048 -6.4465332 33.25561523 C-6.45736289 28.88549045 -6.46337076 24.51538367 -6.46597099 20.14524651 C-6.4678251 18.47420912 -6.47144543 16.80317278 -6.47682381 15.13214302 C-6.48403534 12.79974324 -6.48508465 10.46741882 -6.48461914 8.13500977 C-6.48821442 7.43729965 -6.49180969 6.73958954 -6.49551392 6.02073669 C-6.48254539 0.05436111 -5.9408404 0.01144671 0 0 Z " fill="#F03F45" transform="translate(295.37109375,561.86328125)"/>
<path d="M0 0 C16.17 0 32.34 0 49 0 C49 4.62 49 9.24 49 14 C48 15 48 15 44.94897461 15.11352539 C43.60008729 15.11336634 42.25119386 15.10767612 40.90234375 15.09765625 C39.83905602 15.09553383 39.83905602 15.09553383 38.75428772 15.09336853 C36.48198288 15.08775443 34.20977525 15.07519963 31.9375 15.0625 C30.40039204 15.05748681 28.86328255 15.05292359 27.32617188 15.04882812 C23.55071333 15.0386297 19.77546596 15.01905732 16 15 C16 19.95 16 24.9 16 30 C24.91 30 33.82 30 43 30 C43.09765625 40.83984375 43.09765625 40.83984375 43 44 C42 45 42 45 39.49975586 45.11352539 C38.41573486 45.10828857 37.33171387 45.10305176 36.21484375 45.09765625 C35.04501953 45.09443359 33.87519531 45.09121094 32.66992188 45.08789062 C31.43822266 45.07951172 30.20652344 45.07113281 28.9375 45.0625 C27.08415039 45.05573242 27.08415039 45.05573242 25.19335938 45.04882812 C22.12888587 45.03699618 19.06443707 45.01906008 16 45 C16 49.95 16 54.9 16 60 C18.21460938 59.98839844 20.42921875 59.97679687 22.7109375 59.96484375 C24.85221208 59.95704841 26.9934851 59.95097436 29.13476562 59.94506836 C30.62468166 59.94003486 32.11459274 59.93320758 33.60449219 59.92456055 C35.74415304 59.91245195 37.88374868 59.90676193 40.0234375 59.90234375 C41.31169434 59.89710693 42.59995117 59.89187012 43.92724609 59.88647461 C47 60 47 60 49 61 C49 65.62 49 70.24 49 75 C46.65955621 76.17022189 45.28094286 76.12676545 42.67382812 76.12939453 C41.77950073 76.13254669 40.88517334 76.13569885 39.96374512 76.13894653 C38.99602173 76.1369223 38.02829834 76.13489807 37.03125 76.1328125 C36.04000122 76.13376923 35.04875244 76.13472595 34.02746582 76.13571167 C31.92927995 76.13639293 29.83109199 76.13454243 27.73291016 76.13037109 C24.5132984 76.12502209 21.29382615 76.13031794 18.07421875 76.13671875 C16.03906219 76.13605796 14.00390572 76.13477678 11.96875 76.1328125 C10.51716492 76.13584885 10.51716492 76.13584885 9.03625488 76.13894653 C8.14192749 76.13579437 7.2476001 76.13264221 6.32617188 76.12939453 C5.14275208 76.12820114 5.14275208 76.12820114 3.9354248 76.12698364 C2 76 2 76 0 75 C0 50.25 0 25.5 0 0 Z " fill="#DE3A40" transform="translate(458,563)"/>
<path d="M0 0 C7.734375 -0.020625 15.46875 -0.04125 23.4375 -0.0625 C25.88212646 -0.071604 28.32675293 -0.08070801 30.84545898 -0.09008789 C32.77067001 -0.09300691 34.69588165 -0.0955555 36.62109375 -0.09765625 C38.13564148 -0.1053302 38.13564148 -0.1053302 39.68078613 -0.11315918 C40.6348938 -0.11328003 41.58900146 -0.11340088 42.57202148 -0.11352539 C43.40475082 -0.115746 44.23748016 -0.11796661 45.09544373 -0.12025452 C47 0 47 0 48 1 C48.0989294 3.16480797 48.129711 5.33293785 48.125 7.5 C48.12886719 9.27890625 48.12886719 9.27890625 48.1328125 11.09375 C48 14 48 14 47 15 C44.78144736 15.08783542 42.56011504 15.10694609 40.33984375 15.09765625 C39.34314415 15.09553383 39.34314415 15.09553383 38.3263092 15.09336853 C36.19666101 15.08775518 34.06711661 15.07520054 31.9375 15.0625 C30.49674631 15.05748671 29.05599097 15.05292351 27.61523438 15.04882812 C24.07675042 15.03863076 20.53849187 15.0190583 17 15 C17 19.95 17 24.9 17 30 C25.25 30 33.5 30 42 30 C42.09765625 40.83984375 42.09765625 40.83984375 42 44 C41 45 41 45 38.68334961 45.11352539 C37.68311768 45.10828857 36.68288574 45.10305176 35.65234375 45.09765625 C34.19429321 45.09390991 34.19429321 45.09390991 32.70678711 45.09008789 C31.46292236 45.08098389 30.21905762 45.07187988 28.9375 45.0625 C24.998125 45.041875 21.05875 45.02125 17 45 C17 54.9 17 64.8 17 75 C14.14804778 76.42597611 11.67538825 76.1320252 8.5 76.125 C6.75203125 76.12886719 6.75203125 76.12886719 4.96875 76.1328125 C2 76 2 76 0 75 C0 50.25 0 25.5 0 0 Z " fill="#D9393F" transform="translate(235,563)"/>
<path d="M0 0 C1.39456452 0.00667256 2.78911118 0.01863093 4.18359375 0.03515625 C4.89451172 0.03966797 5.60542969 0.04417969 6.33789062 0.04882812 C8.09899388 0.06064761 9.86005411 0.07858362 11.62109375 0.09765625 C13.09789429 3.05125734 12.75658883 5.69754433 12.76635742 8.99414062 C12.76971603 9.70323074 12.77307465 10.41232086 12.77653503 11.14289856 C12.78605272 13.49241882 12.78798842 15.8418679 12.7890625 18.19140625 C12.79227406 19.82043487 12.79563805 21.4494632 12.79914856 23.07849121 C12.80514155 26.49487985 12.80698824 29.91124319 12.80639648 33.32763672 C12.80629475 37.71281228 12.81995805 42.09782633 12.83716869 46.48296356 C12.84826663 49.84748078 12.85031639 53.21195865 12.84978676 56.57649231 C12.85096979 58.19367531 12.85540953 59.81085924 12.86311913 61.42802429 C12.87287654 63.68585662 12.87005826 65.94333429 12.86401367 68.20117188 C12.86543869 69.4875354 12.86686371 70.77389893 12.86833191 72.09924316 C12.62109375 75.09765625 12.62109375 75.09765625 10.62109375 77.09765625 C7.65234375 77.328125 7.65234375 77.328125 4.12109375 77.28515625 C2.95578125 77.27871094 1.79046875 77.27226563 0.58984375 77.265625 C-2.37890625 77.09765625 -2.37890625 77.09765625 -4.37890625 76.09765625 C-4.40203071 66.33614637 -4.41982186 56.57464295 -4.43071842 46.81311131 C-4.43594703 42.28091531 -4.44304426 37.74873798 -4.4543457 33.21655273 C-4.46517539 28.84642795 -4.47118326 24.47632117 -4.47378349 20.10618401 C-4.4756376 18.43514662 -4.47925793 16.76411028 -4.48463631 15.09308052 C-4.49184784 12.76068074 -4.49289715 10.42835632 -4.49243164 8.09594727 C-4.49602692 7.39823715 -4.49962219 6.70052704 -4.50332642 5.98167419 C-4.49060674 0.12978632 -4.49060674 0.12978632 0 0 Z " fill="#D4383D" transform="translate(357.37890625,561.90234375)"/>
<path d="M0 0 C0.70253906 0.00386719 1.40507812 0.00773438 2.12890625 0.01171875 C2.83144531 0.00785156 3.53398437 0.00398437 4.2578125 0 C9.50229247 0.01010497 9.50229247 0.01010497 10.62890625 1.13671875 C10.7166623 3.28230702 10.73585844 5.43076296 10.7265625 7.578125 C10.72333984 8.88330078 10.72011719 10.18847656 10.71679688 11.53320312 C10.70844026 12.92187565 10.6999753 14.31054752 10.69140625 15.69921875 C10.68639291 17.09179531 10.68182972 18.48437356 10.67773438 19.87695312 C10.66590067 23.29689326 10.64796456 26.71681125 10.62890625 30.13671875 C18.21890625 30.13671875 25.80890625 30.13671875 33.62890625 30.13671875 C33.61730469 28.05488281 33.60570312 25.97304688 33.59375 23.828125 C33.5867989 21.81925577 33.57988236 19.81038624 33.57397461 17.80151367 C33.56893545 16.40176647 33.56210409 15.00202455 33.5534668 13.60229492 C33.54138305 11.59426098 33.53620818 9.58618918 33.53125 7.578125 C33.52601318 6.36842041 33.52077637 5.15871582 33.51538086 3.91235352 C33.62890625 1.13671875 33.62890625 1.13671875 34.62890625 0.13671875 C37.15940027 0.06358308 39.66195462 0.04424348 42.19140625 0.07421875 C43.2577832 0.08098633 43.2577832 0.08098633 44.34570312 0.08789062 C46.10680638 0.09971011 47.86786661 0.11764612 49.62890625 0.13671875 C51.12173018 3.12236661 50.74807602 5.82655593 50.74243164 9.15673828 C50.74257767 9.87879456 50.74272369 10.60085083 50.74287415 11.3447876 C50.74217632 13.73639916 50.73439 16.12793326 50.7265625 18.51953125 C50.72469786 20.17577064 50.72327417 21.83201059 50.72227478 23.48825073 C50.71845324 27.85139483 50.70862603 32.21450575 50.6975708 36.57763672 C50.68734889 41.02831574 50.68277549 45.47900012 50.67773438 49.9296875 C50.66700345 58.66537983 50.64993137 67.40104516 50.62890625 76.13671875 C47.77695403 77.56269486 45.3042945 77.26874395 42.12890625 77.26171875 C40.96359375 77.26429688 39.79828125 77.266875 38.59765625 77.26953125 C35.62890625 77.13671875 35.62890625 77.13671875 33.62890625 76.13671875 C33.62890625 66.56671875 33.62890625 56.99671875 33.62890625 47.13671875 C26.03890625 47.13671875 18.44890625 47.13671875 10.62890625 47.13671875 C10.62890625 56.70671875 10.62890625 66.27671875 10.62890625 76.13671875 C7.77695403 77.56269486 5.3042945 77.26874395 2.12890625 77.26171875 C0.3809375 77.26558594 0.3809375 77.26558594 -1.40234375 77.26953125 C-4.37109375 77.13671875 -4.37109375 77.13671875 -6.37109375 76.13671875 C-6.39421821 66.37520887 -6.41200936 56.61370545 -6.42290592 46.85217381 C-6.42813453 42.31997781 -6.43523176 37.78780048 -6.4465332 33.25561523 C-6.45736289 28.88549045 -6.46337076 24.51538367 -6.46597099 20.14524651 C-6.4678251 18.47420912 -6.47144543 16.80317278 -6.47682381 15.13214302 C-6.48403534 12.79974324 -6.48508465 10.46741882 -6.48461914 8.13500977 C-6.48821442 7.43729965 -6.49180969 6.73958954 -6.49551392 6.02073669 C-6.48254539 0.05436111 -5.9408404 0.01144671 0 0 Z M-4.37109375 2.13671875 C-4.37109375 26.22671875 -4.37109375 50.31671875 -4.37109375 75.13671875 C-0.08109375 75.13671875 4.20890625 75.13671875 8.62890625 75.13671875 C8.62890625 65.56671875 8.62890625 55.99671875 8.62890625 46.13671875 C17.53890625 46.13671875 26.44890625 46.13671875 35.62890625 46.13671875 C35.62890625 55.70671875 35.62890625 65.27671875 35.62890625 75.13671875 C39.91890625 75.13671875 44.20890625 75.13671875 48.62890625 75.13671875 C48.62890625 51.04671875 48.62890625 26.95671875 48.62890625 2.13671875 C44.00890625 2.13671875 39.38890625 2.13671875 34.62890625 2.13671875 C34.62890625 11.70671875 34.62890625 21.27671875 34.62890625 31.13671875 C26.04890625 31.13671875 17.46890625 31.13671875 8.62890625 31.13671875 C8.62890625 21.56671875 8.62890625 11.99671875 8.62890625 2.13671875 C4.33890625 2.13671875 0.04890625 2.13671875 -4.37109375 2.13671875 Z " fill="#6A1B1E" transform="translate(295.37109375,561.86328125)"/>
<path d="M0 0 C0.33 0 0.66 0 1 0 C0.67 30.03 0.34 60.06 0 91 C-10.15136719 91.03867188 -10.15136719 91.03867188 -20.5078125 91.078125 C-24.81904723 91.10331904 -29.13021358 91.12967172 -33.44140625 91.16015625 C-40.27034683 91.20833478 -47.09912895 91.25243811 -53.92822266 91.27099609 C-59.43976508 91.2862437 -64.95089028 91.32083188 -70.46224594 91.36830902 C-72.55511708 91.38303966 -74.64804781 91.39103619 -76.74097061 91.39188385 C-87.43136004 91.40056069 -97.06262032 91.57183347 -107.24777222 95.12200928 C-111.00199079 96.31964601 -114.09937129 96.3120503 -118 96 C-106.09958893 88.06639262 -88.97036412 89.46663512 -75.33984375 89.609375 C-73.21180255 89.6168556 -71.08375435 89.6225399 -68.95570374 89.62652588 C-63.41385136 89.64163918 -57.87243298 89.68079402 -52.33074951 89.7253418 C-46.65219998 89.76660691 -40.97357882 89.78460295 -35.29492188 89.8046875 C-24.19642618 89.8473051 -13.09824949 89.91537831 -2 90 C-2.00444122 89.01996002 -2.00888245 88.03992004 -2.01345825 87.03018188 C-2.05412682 77.76214073 -2.08404297 68.49411784 -2.10362434 59.22600746 C-2.11402996 54.46199427 -2.12812989 49.69805354 -2.15087891 44.93408203 C-2.17272272 40.33049184 -2.18459282 35.72697103 -2.18975449 31.12333298 C-2.19342963 29.37320235 -2.20060588 27.62307522 -2.21146011 25.8729744 C-2.26435826 16.984633 -2.22786237 8.67247464 0 0 Z " fill="#671B1D" transform="translate(306,69)"/>
<path d="M0 0 C3.14581423 -0.02888514 6.29159469 -0.04675923 9.4375 -0.0625 C10.33533203 -0.07087891 11.23316406 -0.07925781 12.15820312 -0.08789062 C13.01220703 -0.09111328 13.86621094 -0.09433594 14.74609375 -0.09765625 C15.93223267 -0.10551147 15.93223267 -0.10551147 17.14233398 -0.11352539 C19 0 19 0 20 1 C20.09492722 3.34253782 20.12559791 5.65546104 20.11352539 7.99829102 C20.11367142 8.72995483 20.11381744 9.46161865 20.1139679 10.2154541 C20.11326867 12.64496784 20.10547585 15.07440583 20.09765625 17.50390625 C20.0957921 19.18399514 20.09436819 20.86408457 20.09336853 22.54417419 C20.08954307 26.97473643 20.07971256 31.4052661 20.06866455 35.83581543 C20.05845103 40.35342976 20.05387104 44.87104934 20.04882812 49.38867188 C20.03809031 58.25912893 20.02101356 67.12956176 20 76 C17.14804778 77.42597611 14.67538825 77.1320252 11.5 77.125 C10.3346875 77.12757813 9.169375 77.13015625 7.96875 77.1328125 C5 77 5 77 3 76 C2.505 55.21 2.505 55.21 2 34 C2.66 34 3.32 34 4 34 C4.94358255 43.10179517 5.12224433 52.10452203 5.0625 61.25 C5.05746786 62.59244622 5.05290802 63.9348943 5.04882812 65.27734375 C5.03717019 68.51824907 5.01923999 71.75913082 5 75 C9.29 75 13.58 75 18 75 C18 50.91 18 26.82 18 2 C12.39 2 6.78 2 1 2 C0.34 3.32 -0.32 4.64 -1 6 C-1.33 5.34 -1.66 4.68 -2 4 C-1.0625 1.875 -1.0625 1.875 0 0 Z " fill="#7E2124" transform="translate(571,562)"/>
<path d="M0 0 C4.95 0 9.9 0 15 0 C15 10.23 15 20.46 15 31 C14.67 31 14.34 31 14 31 C14 21.43 14 11.86 14 2 C9.71 2 5.42 2 1 2 C1 26.09 1 50.18 1 75 C5.29 75 9.58 75 14 75 C14 65.43 14 55.86 14 46 C14.33 46 14.66 46 15 46 C15.02465622 50.25414623 15.04283899 54.50825498 15.05493164 58.76245117 C15.05997101 60.21070073 15.06680253 61.65894517 15.07543945 63.10717773 C15.08752247 65.18474588 15.09323211 67.26224697 15.09765625 69.33984375 C15.10551147 71.21724243 15.10551147 71.21724243 15.11352539 73.13256836 C15 76 15 76 14 77 C11.85605481 77.0991757 9.70873268 77.1297015 7.5625 77.125 C6.38816406 77.12757813 5.21382813 77.13015625 4.00390625 77.1328125 C1 77 1 77 -1 76 C-1.02312446 66.23849012 -1.04091561 56.4769867 -1.05181217 46.71545506 C-1.05704078 42.18325906 -1.06413801 37.65108173 -1.07543945 33.11889648 C-1.08626914 28.7487717 -1.09227701 24.37866492 -1.09487724 20.00852776 C-1.09673135 18.33749037 -1.10035168 16.66645403 -1.10573006 14.99542427 C-1.11294159 12.66302449 -1.1139909 10.33070007 -1.11352539 7.99829102 C-1.11712067 7.3005809 -1.12071594 6.60287079 -1.12442017 5.88401794 C-1.11405216 1.11405216 -1.11405216 1.11405216 0 0 Z " fill="#99282C" transform="translate(290,562)"/>
<path d="M0 0 C6.27 0 12.54 0 19 0 C22.22265625 6.8359375 22.22265625 6.8359375 23 9 C22.67 9.66 22.34 10.32 22 11 C20.68 8.36 19.36 5.72 18 3 C12.39 2.67 6.78 2.34 1 2 C1 26.09 1 50.18 1 75 C5.62 75 10.24 75 15 75 C15 61.47 15 47.94 15 34 C15.66 34 16.32 34 17 34 C17.33 35.65 17.66 37.3 18 39 C17.67 39 17.34 39 17 39 C16.67 51.21 16.34 63.42 16 76 C13.26922124 77.36538938 11.04439633 77.13231826 8 77.125 C6.39125 77.12886719 6.39125 77.12886719 4.75 77.1328125 C2 77 2 77 0 76 C0 50.92 0 25.84 0 0 Z " fill="#97282B" transform="translate(514,562)"/>
<path d="M0 0 C0.33 0 0.66 0 1 0 C1.00364563 1.01682861 1.00729126 2.03365723 1.01104736 3.08129883 C1.04821573 12.73029146 1.10622305 22.37897137 1.18390274 32.02772522 C1.22317537 36.98659461 1.25546191 41.94529179 1.27099609 46.90429688 C1.28629721 51.70265212 1.3209762 56.50053323 1.36830902 61.29867554 C1.38298559 63.11636195 1.39103299 64.93411611 1.39188385 66.75186157 C1.4028281 78.42432406 2.58919266 88.81518594 6 100 C6.66 100 7.32 100 8 100 C8.66 102.64 9.32 105.28 10 108 C7.23146635 105.578542 5.92669123 103.09251073 4.4375 99.75 C4.02371094 98.83734375 3.60992187 97.9246875 3.18359375 96.984375 C0.64069521 90.57257803 -0.28921227 85.0341653 -0.22705078 78.21899414 C-0.22734283 77.36941132 -0.22763489 76.51982849 -0.22793579 75.64450073 C-0.22655105 72.85794587 -0.2110304 70.07166396 -0.1953125 67.28515625 C-0.19157932 65.34460089 -0.18873379 63.40404364 -0.18673706 61.46348572 C-0.17912459 56.37208798 -0.15949667 51.28080552 -0.1373291 46.18945312 C-0.11681917 40.98764607 -0.10772435 35.78582027 -0.09765625 30.58398438 C-0.07624847 20.38927245 -0.04214144 10.19464584 0 0 Z " fill="#A7494C" transform="translate(305,383)"/>
<path d="M0 0 C0.33 0 0.66 0 1 0 C1.04639018 11.2224785 1.0819032 22.4449341 1.10362434 33.66748905 C1.11405067 38.87886511 1.12818892 44.09017544 1.15087891 49.30151367 C1.17264823 54.3330239 1.18457729 59.364471 1.18975449 64.3960247 C1.19344289 66.31330801 1.20064541 68.23058796 1.21146011 70.14784431 C1.22602933 72.83830288 1.22797567 75.52850232 1.22705078 78.21899414 C1.23424133 79.00734146 1.24143188 79.79568878 1.24884033 80.60792542 C1.23092203 85.44153474 0.53319662 89.41011633 -1 94 C-1.33 94 -1.66 94 -2 94 C-2.06726094 90.16612649 -2.10129183 86.64667657 -1.50672913 82.85081482 C-0.98255699 78.86744434 -0.82701558 74.96249826 -0.79467773 70.95336914 C-0.78477814 70.18181488 -0.77487854 69.41026062 -0.76467896 68.61532593 C-0.73332573 66.08863292 -0.70841114 63.56192117 -0.68359375 61.03515625 C-0.66300156 59.27395668 -0.64200452 57.51276179 -0.62062073 55.75157166 C-0.56563388 51.13373634 -0.51612223 46.51585817 -0.46777344 41.89794922 C-0.41738681 37.1786725 -0.36179064 32.45945741 -0.30664062 27.74023438 C-0.19934545 18.49354234 -0.09783781 9.2467966 0 0 Z " fill="#A6484B" transform="translate(562,383)"/>
<path d="M0 0 C0.66 0 1.32 0 2 0 C2.33 1.65 2.66 3.3 3 5 C2.67 5 2.34 5 2 5 C1.67 17.21 1.34 29.42 1 42 C-1.76452033 43.38226016 -4.0461363 43.09525387 -7.125 43.0625 C-8.22070312 43.05347656 -9.31640625 43.04445313 -10.4453125 43.03515625 C-11.28835938 43.02355469 -12.13140625 43.01195312 -13 43 C-13.33 42.34 -13.66 41.68 -14 41 C-9.38 41 -4.76 41 0 41 C0 27.47 0 13.94 0 0 Z " fill="#7F2124" transform="translate(529,596)"/>
<path d="M0 0 C0.66 0.33 1.32 0.66 2 1 C-11.77848101 17.25949367 -11.77848101 17.25949367 -17 19 C-15.52736527 14.05158143 -12.67984563 11.29220584 -9.0625 7.8125 C-8.52431641 7.27947266 -7.98613281 6.74644531 -7.43164062 6.19726562 C-5.05430856 3.8668353 -2.776948 1.85129867 0 0 Z " fill="#A62B2F" transform="translate(171,173)"/>
<path d="M0 0 C-0.7734375 0.00257813 -1.546875 0.00515625 -2.34375 0.0078125 C-10.14623796 0.29750884 -14.31817406 1.72221501 -20 7 C-21.16272319 7.96311405 -22.3290519 8.92190271 -23.5 9.875 C-24.7375 10.926875 -24.7375 10.926875 -26 12 C-26 8.41611006 -24.87192072 7.12965094 -22.5625 4.4921875 C-16.66305092 -1.14178637 -7.29695078 -4.86463385 0 0 Z " fill="#883B3E" transform="translate(567,280)"/>
<path d="M0 0 C0.99 0.33 1.98 0.66 3 1 C3.33 2.32 3.66 3.64 4 5 C8.95 5.33 13.9 5.66 19 6 C18.67 4.02 18.34 2.04 18 0 C22 4.75 22 4.75 22 7 C19.0586446 8.4706777 16.39772595 8.17048999 13.125 8.1875 C11.27261719 8.20876953 11.27261719 8.20876953 9.3828125 8.23046875 C6.23514155 8.01602004 4.52737529 7.83204476 2 6 C0.75 2.875 0.75 2.875 0 0 Z " fill="#812225" transform="translate(637,631)"/>
<path d="M0 0 C2.125 0.375 2.125 0.375 4 1 C2.21427748 2.83947337 0.42197551 4.67157741 -1.375 6.5 C-1.88289062 7.02464844 -2.39078125 7.54929687 -2.9140625 8.08984375 C-4.23832604 9.43153181 -5.61605865 10.71995815 -7 12 C-7.66 12 -8.32 12 -9 12 C-7.60090738 7.54834166 -5.39864635 5.14374788 -2 2 C-1.34 1.34 -0.68 0.68 0 0 Z " fill="#B14D51" transform="translate(620,285)"/>
<path d="M0 0 C3 1.5 3 1.5 5 3 C4.67 3.66 4.34 4.32 4 5 C3.01 4.34 2.02 3.68 1 3 C-1.50896686 2.54398739 -1.50896686 2.54398739 -4.1875 2.375 C-5.08855469 2.30023438 -5.98960937 2.22546875 -6.91796875 2.1484375 C-7.60503906 2.09945313 -8.29210937 2.05046875 -9 2 C-9.26554687 2.61359375 -9.53109375 3.2271875 -9.8046875 3.859375 C-11.52145442 6.93384649 -14.04027031 8.19842541 -17 10 C-13.77337488 2.08010198 -8.2406223 -0.94538688 0 0 Z " fill="#873A3D" transform="translate(418,279)"/>
<path d="M0 0 C0.99 0.495 0.99 0.495 2 1 C2.51361444 3.1078974 2.93479974 5.23856049 3.3125 7.375 C4.50142595 13.39971285 6.30529776 18.44362438 9.109375 23.890625 C9.40328125 24.58671875 9.6971875 25.2828125 10 26 C9.67 26.66 9.34 27.32 9 28 C4.22807627 19.15109289 -0.33103803 10.28057006 0 0 Z " fill="#6C2F31" transform="translate(604,224)"/>
<path d="M0 0 C6.27 0 12.54 0 19 0 C18.67 0.66 18.34 1.32 18 2 C12.39 2 6.78 2 1 2 C0.34 3.32 -0.32 4.64 -1 6 C-1.33 5.34 -1.66 4.68 -2 4 C-1.34 2.68 -0.68 1.36 0 0 Z " fill="#7D2123" transform="translate(571,562)"/>
<path d="M0 0 C0.99 0.495 0.99 0.495 2 1 C2.80045663 3.69058598 3.4954659 6.33218727 4.125 9.0625 C4.30675781 9.82111328 4.48851562 10.57972656 4.67578125 11.36132812 C5.12456584 13.23913735 5.56323336 15.11935915 6 17 C6.66 17 7.32 17 8 17 C8.66 19.64 9.32 22.28 10 25 C4.29788438 20.01272686 1.62449235 11.23637501 0 4 C0 2.68 0 1.36 0 0 Z " fill="#7F373A" transform="translate(305,466)"/>
<path d="M0 0 C0 0.33 0 0.66 0 1 C-0.99 1.165 -1.98 1.33 -3 1.5 C-7.612677 2.75885686 -10.16904502 5.86248193 -13.30078125 9.3203125 C-15 11 -15 11 -17 11 C-15.56179187 5.96627156 -13.09754485 4.01044111 -9 1 C-5.8035914 -0.06546953 -3.34252724 -0.07427838 0 0 Z " fill="#9F4548" transform="translate(497,284)"/>
<path d="M0 0 C0.66 0.33 1.32 0.66 2 1 C0.42687016 2.8223088 -1.15736799 4.63236793 -2.75 6.4375 C-3.41515625 7.2119043 -3.41515625 7.2119043 -4.09375 8.00195312 C-6.52915356 10.74178213 -8.24061317 12.65743905 -12 13 C-8.83410746 7.59160025 -4.82485166 3.95825209 0 0 Z " fill="#9A282C" transform="translate(330,35)"/>
<path d="M0 0 C1.71484375 1.5234375 1.71484375 1.5234375 3 3 C2.39671875 2.95359375 1.7934375 2.9071875 1.171875 2.859375 C-4.02934202 2.48437136 -4.02934202 2.48437136 -8.375 5 C-8.91125 5.66 -9.4475 6.32 -10 7 C-10.99 7 -11.98 7 -13 7 C-10.37031236 0.64492153 -6.75308305 -0.73669997 0 0 Z " fill="#9D4447" transform="translate(354,295)"/>
<path d="M0 0 C2.875 1.5 2.875 1.5 5 3 C4.01 3.495 4.01 3.495 3 4 C1.7625 3.5875 0.525 3.175 -0.75 2.75 C-3.85285373 1.85375276 -3.85285373 1.85375276 -6.75390625 2.9765625 C-8.20520882 4.27873373 -9.60512118 5.63756023 -11 7 C-11.99 7 -12.98 7 -14 7 C-12.94633868 3.94438218 -12.02789701 3.01775264 -9.25 1.25 C-5.77933675 -0.08487048 -3.67594655 -0.46926977 0 0 Z " fill="#95272B" transform="translate(282,281)"/>
<path d="M0 0 C0.66 0.33 1.32 0.66 2 1 C1.67 1.99 1.34 2.98 1 4 C-1.43757413 4.02698422 -3.87484915 4.04683099 -6.3125 4.0625 C-7.00279297 4.07087891 -7.69308594 4.07925781 -8.40429688 4.08789062 C-11.5483025 4.10307906 -13.99420019 4.00193327 -17 3 C-16.67 2.34 -16.34 1.68 -16 1 C-10.72 1.33 -5.44 1.66 0 2 C0 1.34 0 0.68 0 0 Z " fill="#7D2124" transform="translate(437,635)"/>
<path d="M0 0 C1 2 1 2 0.56274414 3.87939453 C0.30614014 4.62302246 0.04953613 5.36665039 -0.21484375 6.1328125 C-0.48876953 6.93847656 -0.76269531 7.74414062 -1.04492188 8.57421875 C-1.48674805 9.83685547 -1.48674805 9.83685547 -1.9375 11.125 C-2.22818359 11.97449219 -2.51886719 12.82398438 -2.81835938 13.69921875 C-3.53893001 15.80186749 -4.26638315 17.90187477 -5 20 C-5.33 20 -5.66 20 -6 20 C-6 17.69 -6 15.38 -6 13 C-5.34 13 -4.68 13 -4 13 C-4.0825 11.96875 -4.165 10.9375 -4.25 9.875 C-3.96192439 5.40982801 -2.71355283 3.47673956 0 0 Z " fill="#812125" transform="translate(514,225)"/>
<path d="M0 0 C2.1328125 0.3984375 2.1328125 0.3984375 4 1 C2.90220176 2.15193623 1.79650554 3.29634937 0.6875 4.4375 C0.07261719 5.07558594 -0.54226563 5.71367187 -1.17578125 6.37109375 C-3 8 -3 8 -6 9 C-4.70306052 5.10918157 -3.29300888 2.51818326 0 0 Z " fill="#AE4B4F" transform="translate(546,283)"/>
<path d="M0 0 C6.07781789 0.5285059 11.54600325 2.23120855 17 5 C17.33 5.66 17.66 6.32 18 7 C2.36516854 2.36516854 2.36516854 2.36516854 0 0 Z " fill="#793537" transform="translate(670,162)"/>
<path d="M0 0 C1.8871875 0.0309375 1.8871875 0.0309375 3.8125 0.0625 C0.23618771 2.44670819 -2.17060739 3.19392447 -6.375 3.125 C-8.2621875 3.0940625 -8.2621875 3.0940625 -10.1875 3.0625 C-6.61118771 0.67829181 -4.20439261 -0.06892447 0 0 Z " fill="#98282B" transform="translate(198.1875,161.9375)"/>
<path d="M0 0 C1.32 0.33 2.64 0.66 4 1 C1.36 2.98 -1.28 4.96 -4 7 C-2 3 -2 3 0 0 Z " fill="#A14649" transform="translate(405,282)"/>
<path d="M0 0 C0.99 0.495 0.99 0.495 2 1 C2.59355614 3.64860427 2.74209269 6.29197322 3 9 C2.34 9 1.68 9 1 9 C0.67 6.03 0.34 3.06 0 0 Z " fill="#83393B" transform="translate(604,224)"/>
<path d="M0 0 C0.66 0.33 1.32 0.66 2 1 C-0.75 3.0625 -0.75 3.0625 -4 5 C-6.203125 4.62109375 -6.203125 4.62109375 -8 4 C-6.71349294 3.30289269 -5.42059335 2.61757124 -4.125 1.9375 C-3.40570313 1.55464844 -2.68640625 1.17179688 -1.9453125 0.77734375 C-1.30335938 0.52082031 -0.66140625 0.26429688 0 0 Z " fill="#7A2022" transform="translate(186,165)"/>
<path d="M0 0 C0.66 0.33 1.32 0.66 2 1 C0.1875 3 0.1875 3 -2 5 C-2.99 5 -3.98 5 -5 5 C-4.1875 3.0625 -4.1875 3.0625 -3 1 C-2.01 0.67 -1.02 0.34 0 0 Z " fill="#C25458" transform="translate(346,297)"/>
</svg>
